<svg xmlns="http://www.w3.org/2000/svg" width="17" height="16" viewBox="0 0 17 16"><g><g><path fill="#fff" d="M11.746 8.222a3.159 3.159 0 0 0-.975-2.231 3.332 3.332 0 0 0-2.346-.94c-.083 0-.165.015-.248.015h-.05c-.099 0-.181.016-.28.033a.376.376 0 0 1-.446-.304c-.05-.19.099-.398.313-.43.116-.015.232-.031.347-.048.133-.015.248-.015.364-.015.347 0 .71.048 1.04.127a4.21 4.21 0 0 1 1.85 1.036c.414.414.761.908.96 1.466.148.43.23.876.23 1.339v.176c-.016.08-.016.127-.016.174-.017.208-.215.367-.43.351a.394.394 0 0 1-.363-.414c.017-.064.017-.111.05-.16v-.175zm2.23.191v-.159c0-.701-.149-1.371-.397-1.976a5.468 5.468 0 0 0-1.239-1.8 5.524 5.524 0 0 0-2.33-1.34 5.887 5.887 0 0 0-1.602-.224c-.148 0-.314 0-.479.017-.05 0-.099.016-.148.016l-.33.048a.377.377 0 0 1-.447-.303c-.05-.191.1-.398.314-.43.182-.032.363-.048.545-.064.182-.016.364-.016.545-.016a6.365 6.365 0 0 1 4.477 1.785c.91.877 1.553 2.024 1.768 3.299.05.335.083.669.083 1.02 0 .175 0 .35-.017.526-.016.207-.214.367-.43.35a.393.393 0 0 1-.363-.414c0-.111.017-.207.05-.335zm3.023-.127c0 .223-.016.462-.033.7-.016.209-.215.368-.43.352a.394.394 0 0 1-.363-.415c0-.11.017-.207.017-.303v-.35c0-2.088-.876-3.968-2.28-5.323a7.98 7.98 0 0 0-5.518-2.2c-.231 0-.446.017-.678.033-.115 0-.23.015-.346.032-.116.015-.215.031-.33.047A.375.375 0 0 1 6.59.556c-.05-.19.099-.398.314-.43.248-.048.496-.08.743-.096.248-.016.496-.032.744-.032 2.379 0 4.526.924 6.096 2.44C16.041 3.934 17 6.006 17 8.285zm-2.131 7.188C9.813 18.135.743 10.07.016 5.082c-.281-2.024 3.139-6.359 4.361-3.649l1.305 2.82c.612 1.579-1.272 1.993-1.239 2.822.017.542 1.438 2.215 1.768 2.565.694.733 2.825 2.343 3.965 2.614.545.128 1.008-.541 1.256-.796 1.024-1.052 1.057-1.387 2.032-.878l2.924 1.515c1.123.653-.397 2.773-1.52 3.379z"/></g></g></svg>