<svg xmlns="http://www.w3.org/2000/svg" width="7" height="12" viewBox="0 0 7 12"><g><g><path fill="currentColor" d="M6.735.003L5.058 0C3.169 0 1.952 1.158 1.952 2.954v1.36H.264c-.146 0-.266.11-.266.245v1.974c0 .134.12.244.266.244h1.688v4.978c0 .135.118.245.264.245h2.201c.148 0 .265-.11.265-.245V6.777h1.974c.145 0 .264-.11.264-.244l.001-1.974a.235.235 0 0 0-.078-.173.28.28 0 0 0-.186-.071H4.682V3.16c0-.555.142-.837.922-.837h1.131c.146 0 .264-.11.264-.245V.247c0-.135-.118-.244-.264-.244z"/></g></g></svg>