<svg xmlns="http://www.w3.org/2000/svg" width="12" height="12" viewBox="0 0 12 12"><g><g><path fill="#fff" d="M12 3.75v4.5A3.75 3.75 0 0 1 8.25 12h-4.5A3.751 3.751 0 0 1-.002 8.25v-4.5A3.75 3.75 0 0 1 3.75 0h4.501A3.75 3.75 0 0 1 12 3.75zm-1.125 0A2.628 2.628 0 0 0 8.25 1.126h-4.5a2.628 2.628 0 0 0-2.627 2.626V8.25a2.629 2.629 0 0 0 2.626 2.625h4.501a2.628 2.628 0 0 0 2.624-2.625zM9 6a3 3 0 1 1-6 .002 3 3 0 0 1 6-.002zM7.875 6c0-1.034-.84-1.875-1.876-1.875A1.879 1.879 0 0 0 4.124 6c0 1.034.843 1.875 1.875 1.875A1.877 1.877 0 0 0 7.875 6zm1.35-3.625a.4.4 0 1 1 0 .8.4.4 0 0 1 0-.8z"/></g></g></svg>