<svg xmlns="http://www.w3.org/2000/svg" width="17" height="17" viewBox="0 0 17 17"><defs><clipPath id="idn7a"><path fill="#fff" d="M6.998 0A7 7 0 1 1 7 14a7 7 0 0 1-.002-14z"/></clipPath></defs><g><g><path fill="none" stroke="#de5558" stroke-miterlimit="50" stroke-width="4" d="M6.998 0A7 7 0 1 1 7 14a7 7 0 0 1-.002-14z" clip-path="url(&quot;#idn7a&quot;)"/></g><g><path fill="#de5558" d="M10.317 10.318a1.5 1.5 0 0 1 2.121 0l4.243 4.243a1.5 1.5 0 1 1-2.122 2.12l-4.242-4.242a1.502 1.502 0 0 1 0-2.121z"/></g></g></svg>