<svg xmlns="http://www.w3.org/2000/svg" width="13" height="10" viewBox="0 0 13 10"><g><g><path d="M12.982 1.19a.067.067 0 0 0-.075-.016c-.39.164-.798.28-1.219.349.448-.318.78-.758.951-1.262a.06.06 0 0 0-.02-.067.07.07 0 0 0-.074-.005 5.39 5.39 0 0 1-1.622.592 2.799 2.799 0 0 0-1.949-.782c-1.494 0-2.706 1.146-2.706 2.555 0 .17.018.339.051.503C4.253 2.937 2.322 2 1.01.478A.07.07 0 0 0 .952.455a.06.06 0 0 0-.05.03C.663.874.537 1.319.537 1.77a2.5 2.5 0 0 0 1.018 2 2.672 2.672 0 0 1-.943-.289.071.071 0 0 0-.065 0 .06.06 0 0 0-.031.052l-.001.033c0 1.125.784 2.113 1.902 2.441-.294.045-.6.042-.9-.013a.066.066 0 0 0-.06.02.057.057 0 0 0-.014.059c.336.987 1.268 1.68 2.349 1.766a5.407 5.407 0 0 1-3.099.954A5.58 5.58 0 0 1 .07 8.76.068.068 0 0 0 0 8.8a.06.06 0 0 0 .027.071 7.874 7.874 0 0 0 4.082 1.132c4.745 0 7.579-3.64 7.579-7.159 0-.097-.002-.196-.006-.293.512-.352.95-.786 1.305-1.287a.059.059 0 0 0-.005-.073z"/></g></g></svg>