<svg xmlns="http://www.w3.org/2000/svg" width="14" height="14" viewBox="0 0 14 14"><g><g opacity=".38"><path d="M13.998 6.819c0 3.766-3.077 6.819-6.873 6.819a6.883 6.883 0 0 1-3.322-.848L0 14l1.24-3.66a6.751 6.751 0 0 1-.986-3.521c0-3.767 3.076-6.82 6.872-6.82 3.797 0 6.873 3.053 6.873 6.82zM7.125 1.085c-3.185 0-5.778 2.572-5.778 5.734 0 1.254.41 2.416 1.101 3.362l-.722 2.129 2.221-.706c.912.599 2.005.948 3.178.948 3.187 0 5.779-2.571 5.779-5.733 0-3.162-2.592-5.734-5.779-5.734zm3.373 8.1c-.14.39-.828.767-1.138.794-.308.028-.308.251-2.021-.418-1.713-.67-2.794-2.413-2.879-2.524-.084-.11-.687-.905-.687-1.728s.435-1.227.59-1.394a.62.62 0 0 1 .45-.21c.111 0 .224.014.322.014s.239-.056.38.28c.14.334.476 1.157.518 1.24.043.084.07.181.014.293-.056.111-.084.181-.169.278-.083.099-.175.22-.252.293-.084.084-.173.174-.074.341.098.167.437.715.938 1.158.643.57 1.186.746 1.354.83.168.083.267.069.366-.043a9.81 9.81 0 0 0 .534-.655c.112-.167.223-.139.378-.083.154.055.983.46 1.152.543.168.084.28.125.322.195.042.07.042.405-.098.795z"/></g></g></svg>