<svg xmlns="http://www.w3.org/2000/svg" width="14" height="14" viewBox="0 0 14 14"><g><g opacity=".38"><path d="M7.09 2.555c.008-.249.22-.457.466-.436 2.354.077 4.393 2.175 4.365 4.491a.452.452 0 0 1-.452.445h-.006a.452.452 0 0 1-.447-.457c.023-1.81-1.64-3.515-3.49-3.577a.45.45 0 0 1-.437-.466zm-.065 1.467a.45.45 0 0 1 .5-.395c1.595.188 2.88 1.556 2.868 3.05a.452.452 0 0 1-.452.447h-.003a.452.452 0 0 1-.449-.455C9.5 5.622 8.57 4.66 7.42 4.523a.45.45 0 0 1-.395-.5zm4.893 6.283c-.272.755-1.215 1.588-2.141 1.588a.49.49 0 0 1-.128-.016l-.076-.017c-.112-.025-.28-.06-.445-.13-3.19-1.347-5.448-3.574-6.712-6.619-.248-.594-.258-1.174-.028-1.675.24-.523.715-.914 1.376-1.133.292-.097.58-.096.857.004.607.219 1.877 1.917 1.912 2.56.036.637-.44.955-.669 1.107-.18.12-.253.214-.12.525l.79 1.125c.322.306.72.563 1.178.768.261.116.319.03.379-.058.256-.38.569-.609.93-.678.384-.072.803.044 1.243.346l.159.11c.24.164.488.334.725.52l.13.1c.356.266.951.712.64 1.573zm-1.182-.85c-.05-.036-.1-.074-.148-.112a11.708 11.708 0 0 0-.676-.486l-.16-.11c-.161-.11-.388-.236-.563-.202-.115.022-.232.12-.349.294-.345.51-.89.648-1.496.378a4.998 4.998 0 0 1-1.468-.972.36.36 0 0 1-.056-.065l-.84-1.198a.355.355 0 0 1-.042-.072c-.424-.939.085-1.46.427-1.688.255-.17.27-.231.265-.304-.054-.343-1.006-1.616-1.322-1.762a.334.334 0 0 0-.115-.021.458.458 0 0 0-.145.026c-.416.137-.706.362-.838.651-.123.267-.108.596.04.952 1.17 2.818 3.265 4.882 6.23 6.133.087.037.197.061.286.08l.049.011c.46-.026 1.08-.51 1.253-.99.071-.197.053-.254-.332-.542zm3.262-5.7v6.488c0 2.036-1.72 3.757-3.756 3.757H3.754c-2.036 0-3.756-1.721-3.756-3.757V3.755c0-2.036 1.72-3.756 3.756-3.756h6.488c2.037 0 3.756 1.72 3.756 3.756zm-.904 0c0-1.547-1.306-2.853-2.852-2.853H3.754C2.208.902.902 2.21.902 3.755v6.488c0 1.547 1.306 2.853 2.852 2.853h6.488c1.546 0 2.852-1.307 2.852-2.853z"/></g></g></svg>